<svg xmlns="http://www.w3.org/2000/svg" width="191" height="183" fill="none" viewBox="0 0 191 183"><path fill="#FFCE6F" d="M118.138 145.804L118.72 144.842C126.558 131.904 139.915 123.295 154.934 121.499L166.095 167.287C166.942 170.759 163.156 173.514 160.112 171.641L118.138 145.804Z"/><path fill="#6EA6FF" d="M131.379 154.206L131.857 153.421C137.655 143.877 147.498 137.506 158.58 136.123L166.061 167.485C166.887 170.95 163.113 173.686 160.077 171.822L131.379 154.206Z"/><path fill="#FFCE6F" d="M150.024 165.685L150.267 165.284C153.142 160.556 158.016 157.397 163.506 156.703L166.068 167.524C166.889 170.986 163.118 173.716 160.085 171.856L150.024 165.685Z"/><rect width="9.304" height="19" x="97.656" y="72.005" fill="#FF9CA1" transform="rotate(8.03751 97.6565 72.0049)"/><rect width="9.074" height="19" x="89.522" y="113.755" fill="#8CD79F" transform="rotate(-58.6552 89.522 113.755)"/><rect width="9.482" height="19" x="80.046" y="33.005" fill="#FFCE6F" transform="rotate(6.18106 80.0457 33.0049)"/><rect width="9.553" height="19" x="23" y="43.827" fill="#FF9CA1" transform="rotate(-64.3971 23 43.8267)"/><rect width="10.162" height="19" x="138.834" fill="#FFCE6F" transform="rotate(32.7886 138.834 0)"/><path fill="#97D9A8" d="M57.1528 74.946L64.514 86.196H49.7916L57.1528 74.946Z"/><path fill="#FF9CA1" d="M3.20702 95.8767L16.4029 93.3042L10.8482 106.939L3.20702 95.8767Z"/><path fill="#6EA6FF" d="M132.93 106.475L129.141 119.374L119.593 108.167L132.93 106.475Z"/><path fill="#8BD79F" d="M129.544 86.2821L130.79 92.7879L139.682 93.4197L138.903 91.2129C137.209 86.4142 139.254 81.0961 143.726 78.6676C147.567 76.5816 149.685 72.3081 149.018 67.9882L148 61.3995L139.852 61.5824L140.906 64.5702C142.565 69.2683 140.1 74.4211 135.402 76.0793C131.195 77.564 128.706 81.9006 129.544 86.2821Z"/><path fill="#FFCE6E" d="M38.8751 114.941L34.6337 118.178L39.2686 127.179L39.6853 126.724C43.7052 122.342 50.346 121.607 55.2273 125.003C59.3131 127.847 64.7382 127.842 68.8186 124.991L73.3638 121.815L68.4214 113.889L67.4843 114.91C63.5219 119.23 56.8079 119.52 52.4882 115.557C48.6989 112.082 42.963 111.822 38.8751 114.941Z"/></svg>